<?xml version="1.0" encoding="utf-8"?>
<!-- Generator: Adobe Illustrator 22.0.1, SVG Export Plug-In . SVG Version: 6.00 Build 0)  -->
<svg version="1.1" id="Layer_1" xmlns="http://www.w3.org/2000/svg" xmlns:xlink="http://www.w3.org/1999/xlink" x="0px" y="0px"
	 viewBox="0 0 283.5 283.5" style="enable-background:new 0 0 283.5 283.5;" xml:space="preserve">
<style type="text/css">
	.st0{fill:#002A00;}
	.st1{fill-rule:evenodd;clip-rule:evenodd;fill:url(#SVGID_1_);}
</style>
<g>
	<g>
		<g>
			<path class="st0" d="M60.5,183.5h13.3c12.3,0,19.4,7.1,19.4,17v0.1c0,9.9-7.2,17.3-19.6,17.3H60.5V183.5z M74,209.5
				c5.7,0,9.5-3.1,9.5-8.7v-0.1c0-5.5-3.8-8.7-9.5-8.7h-3.9v17.5H74z"/>
			<path class="st0" d="M107.6,183.3h9.2l14.7,34.7h-10.2l-2.5-6.2h-13.3L103,218H93L107.6,183.3z M116,204.4l-3.8-9.8l-3.9,9.8H116
				z"/>
			<path class="st0" d="M138.8,191.9h-10.3v-8.4h30.2v8.4h-10.3V218h-9.5V191.9z"/>
			<path class="st0" d="M157.8,198.5h16.1v8.2h-16.1V198.5z"/>
			<path class="st0" d="M179.2,183.5h9.6V218h-9.6V183.5z"/>
			<path class="st0" d="M203.5,191.9h-10.3v-8.4h30.2v8.4H213V218h-9.5V191.9z"/>
		</g>
	</g>
	<g>
		<path class="st0" d="M113.8,65.6c-14.1,0-25.6,11.5-25.6,25.6S99.7,117,113.8,117H134c1.4,0,2.8-0.6,3.8-1.6c1-1,1.7-2.4,1.7-3.8
			V91.2C139.4,77.1,127.9,65.6,113.8,65.6z M129.3,106.9h-15.4c-8.6,0-15.5-7.1-15.5-15.6s7-15.5,15.5-15.5c8.5,0,15.4,7,15.4,15.5
			V106.9z"/>
		<path class="st0" d="M144.5,91.2v20.4c0,1.4,0.7,2.8,1.7,3.8c1,1,2.3,1.6,3.8,1.6h20.2c14.1,0,25.6-11.7,25.6-25.8
			s-11.5-25.6-25.6-25.6C156,65.6,144.5,77.1,144.5,91.2z M154.6,91.3c0-8.5,6.9-15.5,15.4-15.5c8.6,0,15.5,7,15.5,15.5
			s-7,15.6-15.5,15.6h-15.4V91.3z"/>
		<path class="st0" d="M139.4,147.8v-20.4c0-1.4-0.7-2.8-1.7-3.8c-1-1-2.3-1.6-3.8-1.6h-20.2c-14.1,0-25.6,11.7-25.6,25.8
			s11.5,25.6,25.6,25.6C127.9,173.4,139.4,162,139.4,147.8z M129.3,147.8c0,8.5-6.9,15.5-15.4,15.5c-8.6,0-15.5-7-15.5-15.5
			c0-8.6,7-15.6,15.5-15.6h15.4V147.8z"/>
		<path class="st0" d="M170.1,173.4c14.1,0,25.6-11.5,25.6-25.6S184.2,122,170.1,122h-20.2c-1.4,0-2.8,0.6-3.8,1.6
			c-1,1-1.7,2.4-1.7,3.8v20.4C144.5,162,156,173.4,170.1,173.4z M154.6,132.2h15.4c8.6,0,15.5,7.1,15.5,15.6c0,8.6-7,15.5-15.5,15.5
			c-8.5,0-15.4-7-15.4-15.5V132.2z"/>
		<linearGradient id="SVGID_1_" gradientUnits="userSpaceOnUse" x1="95.1973" y1="146.5177" x2="188.6925" y2="92.5383">
			<stop  offset="0" style="stop-color:#D2DE26"/>
			<stop  offset="0.2598" style="stop-color:#CFDD27"/>
			<stop  offset="0.4529" style="stop-color:#C6DA2A"/>
			<stop  offset="0.6245" style="stop-color:#B5D42F"/>
			<stop  offset="0.7835" style="stop-color:#9FCD36"/>
			<stop  offset="0.9325" style="stop-color:#82C33F"/>
			<stop  offset="1" style="stop-color:#72BE44"/>
		</linearGradient>
		<path class="st1" d="M98.3,91.3c0-8.6,7-15.5,15.5-15.5c8.5,0,15.4,7,15.4,15.5v15.6h-15.4C105.3,106.9,98.3,99.8,98.3,91.3z
			 M170.1,106.9h-15.4V91.3c0-8.5,6.9-15.5,15.4-15.5c8.6,0,15.5,7,15.5,15.5S178.6,106.9,170.1,106.9z M113.8,132.2h15.4v15.6
			c0,8.5-6.9,15.5-15.4,15.5c-8.6,0-15.5-7-15.5-15.5C98.3,139.2,105.3,132.2,113.8,132.2z M185.6,147.8c0,8.6-7,15.5-15.5,15.5
			c-8.5,0-15.4-7-15.4-15.5v-15.6h15.4C178.6,132.2,185.6,139.2,185.6,147.8z"/>
	</g>
</g>
</svg>
